<?xml version="1.0" encoding="utf-8"?>
<!-- Designed by Vexels.com - 2020 All Rights Reserved - https://vexels.com/terms-and-conditions/  -->
<svg version="1.1" id="Layer_1" xmlns="http://www.w3.org/2000/svg" xmlns:xlink="http://www.w3.org/1999/xlink" x="0px" y="0px"
	 viewBox="0 0 1200 1200" enable-background="new 0 0 1200 1200" xml:space="preserve">
<g>
	<g>
		<path fill="#202020" d="M604.248,294.922c109.878,3.788,214.275,69.701,277.101,161.306
			c111.175,162.102,113.682,391.696,5.517,555.894c-70.557,107.108-222.774,158.078-360.775,130.482
			c-175.322-35.06-292.062-211.08-292.477-384.521c-0.16-66.787,16.309-132.782,40.539-195.003
			c21.62-55.521,49.772-109.032,88.452-154.312C423.095,337.956,509.86,291.668,604.248,294.922z M308.107,719.223
			c-3.773,87.194,19.223,173.756,77.981,242.533c45.595,53.37,109.351,89.774,179.285,102.029
			c117.332,20.561,232.615-32.487,281.596-131.379c48-96.912,60.415-197.798,27.515-302.008
			c-23.308-73.829-63.739-145.128-128.297-191.699c-68.618-49.5-159.571-64.305-242.715-51.016
			c-16.535,2.643-32.805,7.225-47.319,15.589c-18.575,10.704-33.21,26.838-46.367,43.553
			C350.524,522.111,312.354,621.067,308.107,719.223z"/>
	</g>
	<path fill="#202020" d="M474.118,665.597c0,0,11.493,10.604,31.61,29.159c10.108,9.077,22.383,20.098,36.465,32.739
		c14.128,12.197,30.333,25.83,47.514,38.366c8.469,6.063,17.824,11.843,24.748,14.558c2.81,1.285,6.342,1.135,0.302,0.12
		c-0.88-0.077-1.629-0.028-2.611,0.069c-1.51-0.007-3.062,0.186-4.559,0.576c-0.746,0.193-1.48,0.435-2.187,0.72
		c1.02-0.465-11.508,5.179-6.047,2.692l0.262-0.17l0.529-0.344c0.115-0.112,1.233-0.72,0.527-0.427
		c-1.325,0.613-2.627,1.355-3.855,2.203c-6.568,5.454-3.956,3.377-4.732,3.886c0.075-0.232,0.58-1.171,0.891-1.689
		c4.118-7.519,9.75-20.108,14.705-32.312c5.069-12.473,10.446-25.56,15.571-39.1c20.809-54.177,42.156-113.534,63.6-172.723
		c21.559-59.286,43.116-118.571,63.324-174.149C770.6,314.308,789.66,262.543,806,218.172
		c16.051-44.296,29.477-81.165,37.438-106.382c3.869-12.568,6.783-22.271,7.855-27.601c0.575-2.708,0.899-4.024,1.147-4.456
		c0.214,0.29,0.52,0.353,0.52,0.353c-3.246-12.959,4.607-26.099,17.542-29.351c12.937-3.254,26.055,4.614,29.302,17.573
		c0,0,0.62,2.025,1.443,6.116c0.58,3.399,1.131,7.802,1.286,12.538c0.324,9.564,0.076,21.539-1.472,36.25
		c-2.798,29.379-9.278,69.521-19.705,116.836c-5.187,23.644-10.948,49.179-18.097,75.838c-7.024,26.691-14.319,54.862-22.94,83.648
		c-16.961,57.664-36.755,118.582-58.613,178.879c-21.98,60.304-45.545,119.95-71.303,175.506
		c-6.559,13.871-13.004,27.602-20.2,41.052c-7.41,13.651-14.16,26.333-24.95,41.716c-1.695,2.245-3.075,4.144-5.084,6.586
		c-2.986,3.073-2.357,3.761-11.524,11.376c-1.844,1.422-3.76,2.736-5.701,3.922c-1.36,0.809-1.018,0.554-1.613,0.885l-0.557,0.286
		l-0.279,0.144c5.281-2.38-7.421,3.383-6.615,2.936l-4.64,1.243c-3.128,0.737-6.31,1.277-9.447,1.617
		c-2.634,0.138-5.052,0.085-7.584-0.017c-5.468-0.165-9.015-1.017-12.708-1.888c-4.051-0.887-6.726-1.959-9.586-3.042
		c-3.023-1.101-5.571-2.256-7.72-3.396c-2.207-1.131-4.78-2.39-6.557-3.566c-15.622-9.62-26.002-19.114-35.807-28.285
		c-19.196-18.257-33.691-35.81-46.308-51.578c-12.64-15.647-22.703-29.825-30.893-41.527c-8.266-11.634-14.198-21.18-18.372-27.606
		c-4.069-6.591-6.238-10.106-6.238-10.106c-6.772-10.982-3.379-25.385,7.583-32.171c9.1-5.633,20.554-4.247,28.059,2.668
		L474.118,665.597z"/>
</g>
</svg>
